<svg fill="none" height="405" width="1800" xmlns="http://www.w3.org/2000/svg"><path d="M145.9 24.864c-25.074 13.566-45.546 24.96-45.428 25.195.118.41 90.03 48.391 91.328 48.744.531.176 90.796-55.498 90.796-55.968 0-.529-89.498-42.871-90.442-42.813-.354.059-21.239 11.217-46.254 24.842Zm659.41-6.108-32.154 18.089-.177 14.74-.118 14.741h-49.557v56.379h49.498l.236 64.424c.177 68.712.177 67.596 3.127 80.634 7.611 33.592 29.558 55.85 62.183 63.074 18.407 4.052 44.189 3.112 64.956-2.291 4.365-1.174 18.466-5.872 19.292-6.46.236-.235-17.64-54.617-18.171-55.145-.295-.294-2.596.352-5.428 1.527-20.354 8.633-40.472 7.282-51.033-3.465-4.011-4.111-7.61-11.276-8.731-17.501-.708-3.876-.826-15.446-.885-64.718v-60.079l36.755-.118 36.696-.176.177-28.072.118-28.013h-73.156V33.438c0-25.957-.177-32.887-.708-32.829-.413.06-15.221 8.222-32.92 18.147Zm778.94.059-32.63 18.265v292.935h66.08l.12-59.551.17-59.608 51.69 59.432 51.62 59.433 39.35.176 39.35.118v-5.638l-61.06-66.95c-33.57-36.764-61.01-67.185-60.89-67.596.06-.352 24.37-27.72 53.99-60.725 45.01-50.212 53.8-60.255 53.8-61.664v-1.703h-79l-44.42 52.738-44.43 52.796-.17-85.39c-.06-46.924-.3-85.332-.59-85.332-.24 0-15.11 8.222-32.98 18.264ZM241.298 80.362l-48.082 30.421-.354 33.123c-.177 18.205-.413 67.654-.472 109.821l-.059 76.699 48.377 27.719c26.667 15.211 48.555 27.661 48.673 27.661.177 0 .295-25.077.295-55.674v-55.674l-48.378-26.075c-26.608-14.389-48.377-26.252-48.377-26.428 0-.176 21.828-12.509 48.554-27.426l48.496-27.073.177-58.787c.059-32.36-.059-58.787-.295-58.728-.295 0-22.124 13.684-48.555 30.421Zm333.628-21.905c-10.914.94-27.551 4.17-37.463 7.34-5.073 1.645-14.985 5.932-19.941 8.575-23.421 12.685-37.522 31.772-40.885 55.263-1.003 7.106-.413 21.377 1.18 28.189 2.832 12.157 7.906 21.73 16.225 30.48 6.253 6.578 13.451 12.098 20.708 15.857 22.064 11.51 39.233 15.739 78.761 19.262 32.625 2.937 44.896 10.337 44.896 27.015 0 2.937-.354 5.932-1.003 7.694-5.132 15.151-26.666 25.488-50.088 24.019-27.257-1.703-61.062-14.036-79.823-29.129-2.419-1.996-5.192-4.522-6.195-5.638-1.475-1.644-1.888-1.879-2.537-1.233-.413.411-7.787 10.924-16.46 23.374l-15.693 22.61 4.72 4.463c24.07 22.904 52.448 36.353 85.958 40.758 10.325 1.35 34.868 2.173 44.484 1.468 35.87-2.702 61.947-13.038 80-31.831 17.05-17.677 24.189-39.7 21.475-66.01-1.298-12.92-6.254-26.486-13.038-35.53-3.776-5.11-11.623-12.568-17.109-16.209-18.348-12.333-41.003-18.382-81.062-21.612-18.348-1.527-28.024-3.524-36.874-7.752-19.587-9.338-19.41-33.005.354-41.873 13.629-6.108 36.815-7.576 57.464-3.524 14.218 2.76 26.135 8.398 37.699 17.795 4.306 3.523 4.365 3.523 5.309 2.29.531-.646 8.614-10.16 17.995-21.142 9.321-10.982 17.05-20.202 17.05-20.437.059-.764-9.322-8.163-15.576-12.275-12.507-8.28-25.368-13.918-40-17.56-13.274-3.347-23.775-4.521-41.946-4.756-8.614-.059-16.933-.059-18.585.059Zm830.384.234c-49.44 4.64-88.73 29.07-108.5 67.479-8.9 17.266-13.57 34.356-15.45 56.379-.89 10.277-.42 30.949.94 40.581 8.5 61.429 49.15 102.715 111.15 112.699 23.07 3.758 49.15 2.642 69.26-2.878 11.74-3.23 24.84-8.985 34.64-15.152 8.14-5.168 26.54-19.967 26.54-21.377 0-.293-6.19-6.577-13.68-13.86-7.56-7.282-17.41-16.854-21.83-21.2l-8.08-7.87-2.13 1.703c-7.37 5.99-10.8 8.281-17.11 11.393-8.2 4.053-12.27 5.403-21.24 7.048-19.88 3.7-41.88.705-56.93-7.811-21.41-12.039-33.86-32.653-35.99-59.726-3.01-37.762 15.4-69.241 47.5-81.339 12.86-4.815 29.85-6.225 43.12-3.523 12.8 2.643 26.14 8.868 35.7 16.855 1.47 1.233 2.83 2.231 3 2.231.71 0 40.89-42.401 40.89-43.106 0-.411-1.83-2.467-4.13-4.522-20.59-18.793-42.01-29.247-68.14-33.123-7.91-1.174-30.8-1.703-39.53-.88Zm-338.41 1.234c-64.48 6.166-108.67 47.1-118.168 109.292-3.245 21.025-2.95 42.519.826 63.016 9.734 52.502 42.183 88.209 91.802 100.953 20.47 5.227 44.42 6.284 61.59 2.701 17.7-3.699 33.22-10.512 46.37-20.378 7.44-5.521 15.34-14.506 18.88-21.318 1.06-1.997 1.42-2.35 1.53-1.469.18 1.41 3.13 36.001 3.13 36.764 0 .294 12.98.529 30.97.529h30.98V65.739h-63.13v1.292c0 1.41-1.71 30.832-1.95 33.357-.11 1.234-.53.823-3-2.936-3.9-5.873-13.51-15.27-20.3-19.85-13.98-9.514-31.39-15.857-48.61-17.677-6.49-.705-23.66-.705-30.92 0Zm39.06 59.021c16.4 2.467 32.57 11.394 42.77 23.55 4.49 5.286 7.97 10.336 10.15 14.682 16.11 31.655 11.5 71.942-10.97 96.901-14.1 15.681-32.98 23.668-56.29 23.726-23.12.059-42.06-7.164-56.58-21.67-14.98-14.917-22.65-34.826-22.65-58.904 0-39.7 22.71-69.417 59.23-77.521 10.33-2.291 22.6-2.584 34.34-.764ZM49.675 197.348a29667.783 29667.783 0 0 0-47.67 29.423c-.176.176 15.576 9.103 34.986 19.85 19.41 10.806 41.534 23.08 49.204 27.308l13.923 7.753 45.664-29.599c25.132-16.268 45.722-29.775 45.84-30.069.118-.411-25.663-15.093-88.967-50.682l-5.605-3.172-47.374 29.188Zm299.174 48.275-48.554 30.01v55.439c0 30.48.236 55.321.472 55.204.295-.059 22.183-13.096 48.672-28.894l48.201-28.718v-56.555c0-31.126-.059-56.614-.118-56.555-.118 0-22.006 13.507-48.673 30.069ZM0 295.835v55.674l48.142 26.369c26.49 14.564 48.436 26.545 48.672 26.604.295.117.472-24.02.413-55.674l-.177-55.909-48.082-26.369C22.537 252.024.708 240.161.471 240.161c-.295 0-.472 25.018-.472 55.674Z" fill="#fff"></path></svg>